<svg width="64" height="64" viewBox="0 0 64 64" fill="none" xmlns="http://www.w3.org/2000/svg">
<g clip-path="url(#clip0_3_2)">
<path d="M15.154 56.72C14.506 56.72 13.948 56.486 13.48 56.018C13.048 55.586 12.832 55.046 12.832 54.398V11.252C12.832 10.568 13.048 10.01 13.48 9.578C13.948 9.146 14.506 8.93 15.154 8.93H22.714C23.362 8.93 23.884 9.128 24.28 9.524C24.676 9.92 24.874 10.424 24.874 11.036C24.874 11.612 24.676 12.116 24.28 12.548C23.884 12.944 23.362 13.142 22.714 13.142H18.286V52.508H22.714C23.362 52.508 23.884 52.706 24.28 53.102C24.676 53.534 24.874 54.038 24.874 54.614C24.874 55.226 24.676 55.73 24.28 56.126C23.884 56.522 23.362 56.72 22.714 56.72H15.154ZM41.4887 56.72C40.8407 56.72 40.3187 56.522 39.9227 56.126C39.5267 55.73 39.3287 55.226 39.3287 54.614C39.3287 54.038 39.5267 53.534 39.9227 53.102C40.3187 52.706 40.8407 52.508 41.4887 52.508H45.9167V13.142H41.4887C40.8407 13.142 40.3187 12.944 39.9227 12.548C39.5267 12.116 39.3287 11.612 39.3287 11.036C39.3287 10.424 39.5267 9.92 39.9227 9.524C40.3187 9.128 40.8407 8.93 41.4887 8.93H49.0487C49.6967 8.93 50.2367 9.146 50.6687 9.578C51.1367 10.01 51.3707 10.568 51.3707 11.252V54.398C51.3707 55.046 51.1367 55.586 50.6687 56.018C50.2367 56.486 49.6967 56.72 49.0487 56.72H41.4887Z" fill="#FF0000"/>
<path d="M33.9102 18.3281V46.9824H30.8721V18.3281H33.9102Z" fill="#FF0000"/>
</g>
<defs>
<clipPath id="clip0_3_2">
<rect width="64" height="64" fill="white"/>
</clipPath>
</defs>
</svg>
